<svg width="25" height="24" viewBox="0 0 25 24" fill="none" xmlns="http://www.w3.org/2000/svg">
<path d="M18.8007 5.70973C18.4107 5.31973 17.7807 5.31973 17.3907 5.70973L12.5007 10.5897L7.6107 5.69973C7.2207 5.30973 6.5907 5.30973 6.2007 5.69973C5.8107 6.08973 5.8107 6.71973 6.2007 7.10973L11.0907 11.9997L6.2007 16.8897C5.8107 17.2797 5.8107 17.9097 6.2007 18.2997C6.5907 18.6897 7.2207 18.6897 7.6107 18.2997L12.5007 13.4097L17.3907 18.2997C17.7807 18.6897 18.4107 18.6897 18.8007 18.2997C19.1907 17.9097 19.1907 17.2797 18.8007 16.8897L13.9107 11.9997L18.8007 7.10973C19.1807 6.72973 19.1807 6.08973 18.8007 5.70973Z" fill="#C7C7C7"/>
</svg>
